#!OML:ASF G:\JayActor3\Patient Classification 1\Patient 1\Session 6\male.ASF
:FULLY-SPECIFIED
:DEGREES
2308
root 7.97638 14.8658 -19.4512 187.397 -50.4728 -173.78
lowerback 35.3089 -2.45172 -0.936912
upperback 11.6753 -6.08417 -5.01895
thorax -5.36979 -3.69736 -2.53355
lowerneck -4.19677 -0.42975 0.53362
upperneck -43.9853 -5.46266 4.9176
head -14.5517 -5.79396 3.21542
rclavicle -6.36111e-014 -1.59028e-014
rhumerus 29.213 -29.4095 -14.4874
rradius 130.412
rwrist -34.3688
rhand -46.4035 -3.61279
rfingers 7.12502
rthumb -19.1338 -32.6916
lclavicle -6.36111e-014 -1.59028e-014
lhumerus -12.6437 -7.58559 62.8653
lradius 61.806
lwrist 26.0401
lhand -19.6579 9.72903
lfingers 7.12502
lthumb 6.67004 39.604
rfemur -53.3035 -5.53998 26.3948
rtibia 67.2565
rfoot -24.6949 -14.4999
rtoes -8.09379
lfemur -54.6873 13.2136 -21.4736
ltibia 64.1864
lfoot -21.4441 12.4654
ltoes -2.28663
2309
root 7.97647 14.8649 -19.4539 187.358 -50.4827 -173.775
lowerback 35.3111 -2.46413 -0.943603
upperback 11.654 -6.09923 -5.02615
thorax -5.39481 -3.70279 -2.53081
lowerneck -4.17818 -0.438205 0.532974
upperneck -44.0124 -5.47946 4.93736
head -14.5684 -5.80564 3.22909
rclavicle -7.95139e-014 -2.06736e-014
rhumerus 29.2471 -29.4282 -14.4918
rradius 130.322
rwrist -34.3543
rhand -46.4719 -3.51393
rfingers 7.12502
rthumb -19.1995 -32.5862
lclavicle -7.95139e-014 -2.06736e-014
lhumerus -12.6667 -7.58477 62.8711
lradius 61.822
lwrist 26.0224
lhand -19.643 9.7322
lfingers 7.12502
lthumb 6.68449 39.6067
rfemur -53.265 -5.54713 26.4047
rtibia 67.2734
rfoot -24.722 -14.4977
rtoes -8.06616
lfemur -54.6538 13.2311 -21.458
ltibia 64.2049
lfoot -21.4506 12.4551
ltoes -2.33139
2310
root 7.97652 14.8631 -19.4563 187.319 -50.4934 -173.77
lowerback 35.3174 -2.47884 -0.946791
upperback 11.6331 -6.11632 -5.03333
thorax -5.42128 -3.70917 -2.52893
lowerneck -4.17006 -0.450583 0.525822
upperneck -44.0307 -5.49882 4.96672
head -14.5776 -5.81847 3.2468
rclavicle -3.02153e-014 1.1291e-013
rhumerus 29.3019 -29.422 -14.4879
rradius 130.221
rwrist -34.3186
rhand -46.5449 -3.43455
rfingers 7.12502
rthumb -19.2697 -32.4999
lclavicle -3.02153e-014 1.1291e-013
lhumerus -12.6916 -7.57697 62.8787
lradius 61.8361
lwrist 26.0047
lhand -19.6253 9.73891
lfingers 7.12502
lthumb 6.70151 39.6129
rfemur -53.2332 -5.55754 26.4131
rtibia 67.3009
rfoot -24.7515 -14.4931
rtoes -8.04058
lfemur -54.6243 13.2395 -21.442
ltibia 64.2322
lfoot -21.4598 12.4534
ltoes -2.38293
2311
root 7.97658 14.8604 -19.4584 187.287 -50.5039 -173.774
lowerback 35.3269 -2.49417 -0.951535
upperback 11.6109 -6.13477 -5.04054
thorax -5.45025 -3.71613 -2.52553
lowerneck -4.17188 -0.468076 0.514669
upperneck -44.0428 -5.52363 5.00529
head -14.5806 -5.83439 3.26854
rclavicle 7.4743e-014 1.25632e-013
rhumerus 29.3794 -29.3949 -14.4785
rradius 130.119
rwrist -34.2685
rhand -46.6074 -3.38654
rfingers 7.12502
rthumb -19.3298 -32.4458
lclavicle 7.4743e-014 1.25632e-013
lhumerus -12.7201 -7.56063 62.8913
lradius 61.8497
lwrist 25.9829
lhand -19.6036 9.74032
lfingers 7.12502
lthumb 6.72248 39.6136
rfemur -53.2104 -5.56838 26.4157
rtibia 67.3373
rfoot -24.7785 -14.495
rtoes -8.03248
lfemur -54.6006 13.2378 -21.4297
ltibia 64.2657
lfoot -21.472 12.4577
ltoes -2.41666
2312
root 7.97665 14.8579 -19.4602 187.265 -50.5111 -173.786
lowerback 35.3362 -2.50864 -0.961332
upperback 11.5865 -6.15345 -5.0465
thorax -5.48081 -3.72315 -2.51802
lowerneck -4.18812 -0.488251 0.50585
upperneck -44.0452 -5.55328 5.04274
head -14.5756 -5.85282 3.28826
rclavicle -8.26944e-014 -1.59028e-015
rhumerus 29.4713 -29.3599 -14.4687
rradius 130.034
rwrist -34.2166
rhand -46.6382 -3.38292
rfingers 7.12502
rthumb -19.3594 -32.4392
lclavicle -8.26944e-014 -1.59028e-015
lhumerus -12.7481 -7.53584 62.9084
lradius 61.8582
lwrist 25.9625
lhand -19.5866 9.73366
lfingers 7.12502
lthumb 6.73887 39.6064
rfemur -53.1941 -5.57705 26.4129
rtibia 67.375
rfoot -24.8034 -14.4997
rtoes -8.03363
lfemur -54.5809 13.2336 -21.4228
ltibia 64.2987
lfoot -21.4855 12.4613
ltoes -2.43461
2313
root 7.97683 14.8556 -19.4619 187.255 -50.5138 -173.806
lowerback 35.3435 -2.52051 -0.978165
upperback 11.5585 -6.17044 -5.05066
thorax -5.51388 -3.72922 -2.50549
lowerneck -4.21293 -0.508334 0.501449
upperneck -44.043 -5.58625 5.07168
head -14.5668 -5.87253 3.30314
rclavicle -9.06458e-014 7.15625e-014
rhumerus 29.5597 -29.3259 -14.4609
rradius 129.975
rwrist -34.1683
rhand -46.6543 -3.38506
rfingers 7.12502
rthumb -19.3749 -32.4398
lclavicle -9.06458e-014 7.15625e-014
lhumerus -12.7767 -7.51051 62.93
lradius 61.8625
lwrist 25.9498
lhand -19.5753 9.7182
lfingers 7.12502
lthumb 6.74981 39.5906
rfemur -53.1834 -5.58046 26.4038
rtibia 67.4108
rfoot -24.8258 -14.508
rtoes -8.04081
lfemur -54.5656 13.2279 -21.4208
ltibia 64.3287
lfoot -21.5017 12.4592
ltoes -2.42083
2314
root 7.9771 14.8537 -19.4634 187.254 -50.5127 -173.832
lowerback 35.3478 -2.52947 -0.99911
upperback 11.5278 -6.18444 -5.05292
thorax -5.54796 -3.73374 -2.48994
lowerneck -4.2397 -0.522885 0.501647
upperneck -44.0399 -5.61576 5.08408
head -14.5583 -5.88918 3.30975
rclavicle -1.06549e-013 -1.52667e-013
rhumerus 29.638 -29.3022 -14.4614
rradius 129.943
rwrist -34.1301
rhand -46.6356 -3.406
rfingers 7.12502
rthumb -19.3569 -32.4626
lclavicle -1.06549e-013 -1.52667e-013
lhumerus -12.8037 -7.49055 62.9552
lradius 61.8628
lwrist 25.9489
lhand -19.5765 9.70202
lfingers 7.12502
lthumb 6.74867 39.5745
rfemur -53.1752 -5.57835 26.3912
rtibia 67.4417
rfoot -24.8431 -14.5238
rtoes -8.06607
lfemur -54.5521 13.2231 -21.4225
ltibia 64.3535
lfoot -21.5167 12.4554
ltoes -2.39784
2315
root 7.97756 14.8522 -19.4649 187.256 -50.5067 -173.856
lowerback 35.3478 -2.5351 -1.01894
upperback 11.4951 -6.19329 -5.0543
thorax -5.58252 -3.73563 -2.47604
lowerneck -4.2593 -0.528975 0.505282
upperneck -44.0432 -5.63711 5.08003
head -14.5557 -5.9005 3.30907
rclavicle 6.20208e-014 2.8625e-014
rhumerus 29.6982 -29.2908 -14.4732
rradius 129.932
rwrist -34.1075
rhand -46.5812 -3.43115
rfingers 7.12502
rthumb -19.3046 -32.493
lclavicle 6.20208e-014 2.8625e-014
lhumerus -12.8267 -7.48385 62.9793
lradius 61.859
lwrist 25.9638
lhand -19.5847 9.68483
lfingers 7.12502
lthumb 6.74071 39.5575
rfemur -53.1686 -5.56942 26.3799
rtibia 67.4676
rfoot -24.8606 -14.5393
rtoes -8.08863
lfemur -54.5408 13.2197 -21.4215
ltibia 64.3744
lfoot -21.5313 12.4496
ltoes -2.36136
2316
root 7.97811 14.8509 -19.4665 187.259 -50.4978 -173.877
lowerback 35.3426 -2.53839 -1.03387
upperback 11.4633 -6.19752 -5.05676
thorax -5.61458 -3.73526 -2.4678
lowerneck -4.26902 -0.52373 0.507746
upperneck -44.0564 -5.64491 5.06186
head -14.5614 -5.90361 3.30285
rclavicle -1.43125e-014 1.04958e-013
rhumerus 29.7353 -29.2908 -14.495
rradius 129.932
rwrist -34.0926
rhand -46.52 -3.43061
rfingers 7.12502
rthumb -19.2458 -32.4983
lclavicle -1.43125e-014 1.04958e-013
lhumerus -12.8447 -7.49106 63.0011
lradius 61.8541
lwrist 25.9871
lhand -19.6016 9.67277
lfingers 7.12502
lthumb 6.72441 39.546
rfemur -53.1609 -5.55769 26.371
rtibia 67.4884
rfoot -24.8761 -14.5542
rtoes -8.11281
lfemur -54.5287 13.2171 -21.4181
ltibia 64.3917
lfoot -21.5442 12.4477
ltoes -2.33532
2317
root 7.97884 14.85 -19.468 187.256 -50.4871 -173.89
lowerback 35.3338 -2.54017 -1.03828
upperback 11.4326 -6.1965 -5.06143
thorax -5.64514 -3.73225 -2.46947
lowerneck -4.26443 -0.510662 0.507588
upperneck -44.0816 -5.64134 5.03883
head -14.5769 -5.90038 3.29579
rclavicle -2.38542e-014 3.49861e-014
rhumerus 29.7697 -29.2897 -14.5265
rradius 129.915
rwrist -34.0796
rhand -46.4637 -3.41087
rfingers 7.12502
rthumb -19.1916 -32.484
lclavicle -2.38542e-014 3.49861e-014
lhumerus -12.8579 -7.51278 63.0183
lradius 61.8504
lwrist 26.0101
lhand -19.6142 9.67236
lfingers 7.12502
lthumb 6.71224 39.546
rfemur -53.1519 -5.5437 26.3681
rtibia 67.5048
rfoot -24.8933 -14.5629
rtoes -8.10829
lfemur -54.516 13.2132 -21.4076
ltibia 64.4061
lfoot -21.5539 12.4527
ltoes -2.32348
2318
root 7.97972 14.8492 -19.4695 187.247 -50.4744 -173.893
lowerback 35.3222 -2.54019 -1.0337
upperback 11.4037 -6.19038 -5.06673
thorax -5.67341 -3.72679 -2.47855
lowerneck -4.25222 -0.493235 0.501423
upperneck -44.1157 -5.63082 5.01654
head -14.5987 -5.89319 3.29067
rclavicle 5.725e-014 1.09729e-013
rhumerus 29.8033 -29.2868 -14.5619
rradius 129.875
rwrist -34.0621
rhand -46.4317 -3.3581
rfingers 7.12502
rthumb -19.1608 -32.4342
lclavicle 5.725e-014 1.09729e-013
lhumerus -12.8634 -7.54151 63.0336
lradius 61.8452
lwrist 26.0229
lhand -19.6187 9.67648
lfingers 7.12502
lthumb 6.7079 39.5502
rfemur -53.143 -5.52958 26.3731
rtibia 67.5177
rfoot -24.9107 -14.5669
rtoes -8.09814
lfemur -54.5034 13.2069 -21.3892
ltibia 64.4184
lfoot -21.562 12.465
ltoes -2.3225
2319
root 7.98063 14.8486 -19.4708 187.236 -50.4642 -173.896
lowerback 35.3106 -2.53843 -1.01685
upperback 11.3801 -6.17964 -5.07988
thorax -5.69792 -3.71923 -2.50411
lowerneck -4.24005 -0.479897 0.509485
upperneck -44.1552 -5.62551 4.99674
head -14.6235 -5.89127 3.28511
rclavicle -6.83819e-014 -1.08139e-013
rhumerus 29.8262 -29.2815 -14.5961
rradius 129.808
rwrist -34.0292
rhand -46.4265 -3.29061
rfingers 7.12502
rthumb -19.1559 -32.3672
lclavicle -6.83819e-014 -1.08139e-013
lhumerus -12.8505 -7.58687 63.0386
lradius 61.8379
lwrist 26.0238
lhand -19.6061 9.69007
lfingers 7.12502
lthumb 6.72007 39.5634
rfemur -53.1316 -5.52259 26.3791
rtibia 67.5278
rfoot -24.9259 -14.5692
rtoes -8.08773
lfemur -54.4867 13.1924 -21.3698
ltibia 64.4274
lfoot -21.5678 12.4864
ltoes -2.33178
2320
root 7.98156 14.8482 -19.4719 187.224 -50.4554 -173.898
lowerback 35.2984 -2.53322 -0.988428
upperback 11.3622 -6.16241 -5.1
thorax -5.71751 -3.70881 -2.5456
lowerneck -4.2358 -0.475742 0.538712
upperneck -44.1925 -5.63348 4.9774
head -14.646 -5.89898 3.2767
rclavicle -1.27222e-014 -3.49861e-014
rhumerus 29.8041 -29.295 -14.6143
rradius 129.747
rwrist -34.0011
rhand -46.4399 -3.2204
rfingers 7.12502
rthumb -19.1687 -32.2958
lclavicle -1.27222e-014 -3.49861e-014
lhumerus -12.8141 -7.65108 63.034
lradius 61.8262
lwrist 26.0157
lhand -19.5931 9.70063
lfingers 7.12502
lthumb 6.73264 39.5736
rfemur -53.1192 -5.52196 26.3856
rtibia 67.5362
rfoot -24.9415 -14.5638
rtoes -8.0597
lfemur -54.4679 13.1723 -21.3499
ltibia 64.4337
lfoot -21.5727 12.5132
ltoes -2.34159
2321
root 7.9825 14.8479 -19.4728 187.216 -50.4481 -173.903
lowerback 35.2839 -2.52477 -0.952682
upperback 11.3501 -6.14016 -5.12676
thorax -5.73129 -3.69625 -2.60009
lowerneck -4.23889 -0.48266 0.594001
upperneck -44.2253 -5.65799 4.9567
head -14.6652 -5.91828 3.26391
rclavicle 1.59028e-014 3.49861e-014
rhumerus 29.7384 -29.3237 -14.6171
rradius 129.698
rwrist -33.9683
rhand -46.4729 -3.17124
rfingers 7.12502
rthumb -19.2005 -32.2434
lclavicle 1.59028e-014 3.49861e-014
lhumerus -12.7559 -7.73178 63.0186
lradius 61.8117
lwrist 26.0095
lhand -19.585 9.70705
lfingers 7.12502
lthumb 6.74041 39.5798
rfemur -53.1084 -5.527 26.3907
rtibia 67.5432
rfoot -24.9554 -14.5545
rtoes -8.03016
lfemur -54.4493 13.146 -21.3314
ltibia 64.4368
lfoot -21.5787 12.5397
ltoes -2.32988
2322
root 7.98344 14.8476 -19.4735 187.209 -50.4437 -173.913
lowerback 35.2701 -2.51484 -0.915323
upperback 11.3435 -6.1168 -5.15638
thorax -5.73969 -3.68357 -2.65907
lowerneck -4.24851 -0.498433 0.667896
upperneck -44.2498 -5.69538 4.93365
head -14.6792 -5.9459 3.24694
rclavicle 6.99722e-014 4.13472e-014
rhumerus 29.6368 -29.3689 -14.6072
rradius 129.669
rwrist -33.9305
rhand -46.5246 -3.14456
rfingers 7.12502
rthumb -19.2502 -32.2118
lclavicle 6.99722e-014 4.13472e-014
lhumerus -12.6808 -7.82073 62.9957
lradius 61.7947
lwrist 26.0146
lhand -19.5912 9.71405
lfingers 7.12502
lthumb 6.73444 39.587
rfemur -53.0961 -5.53791 26.3921
rtibia 67.5489
rfoot -24.9675 -14.5433
rtoes -8.0081
lfemur -54.4284 13.1155 -21.3167
ltibia 64.4364
lfoot -21.5843 12.5679
ltoes -2.31334
